<svg xmlns="http://www.w3.org/2000/svg" viewBox="0 0 880 420" width="880" height="420" font-family="system-ui,-apple-system,Segoe UI,Roboto,sans-serif" style="background:#FFFFFF"><line x1="66" y1="346" x2="648" y2="346" stroke="#E5E7EB" stroke-width="1"/><text x="56" y="350" text-anchor="end" font-size="12" fill="#475569">0</text><line x1="66" y1="286.4" x2="648" y2="286.4" stroke="#E5E7EB" stroke-width="1"/><text x="56" y="290.4" text-anchor="end" font-size="12" fill="#475569">6</text><line x1="66" y1="226.8" x2="648" y2="226.8" stroke="#E5E7EB" stroke-width="1"/><text x="56" y="230.8" text-anchor="end" font-size="12" fill="#475569">12</text><line x1="66" y1="167.2" x2="648" y2="167.2" stroke="#E5E7EB" stroke-width="1"/><text x="56" y="171.2" text-anchor="end" font-size="12" fill="#475569">18</text><line x1="66" y1="107.6" x2="648" y2="107.6" stroke="#E5E7EB" stroke-width="1"/><text x="56" y="111.6" text-anchor="end" font-size="12" fill="#475569">24</text><line x1="66" y1="48" x2="648" y2="48" stroke="#E5E7EB" stroke-width="1"/><text x="56" y="52" text-anchor="end" font-size="12" fill="#475569">30</text><line x1="66" y1="346" x2="66" y2="351" stroke="#475569" stroke-width="1"/><text x="66" y="366" text-anchor="middle" font-size="12" fill="#475569">0</text><line x1="124.2" y1="346" x2="124.2" y2="351" stroke="#475569" stroke-width="1"/><text x="124.2" y="366" text-anchor="middle" font-size="12" fill="#475569">2</text><line x1="182.4" y1="346" x2="182.4" y2="351" stroke="#475569" stroke-width="1"/><text x="182.4" y="366" text-anchor="middle" font-size="12" fill="#475569">4</text><line x1="240.6" y1="346" x2="240.6" y2="351" stroke="#475569" stroke-width="1"/><text x="240.6" y="366" text-anchor="middle" font-size="12" fill="#475569">6</text><line x1="298.8" y1="346" x2="298.8" y2="351" stroke="#475569" stroke-width="1"/><text x="298.8" y="366" text-anchor="middle" font-size="12" fill="#475569">8</text><line x1="357" y1="346" x2="357" y2="351" stroke="#475569" stroke-width="1"/><text x="357" y="366" text-anchor="middle" font-size="12" fill="#475569">12</text><line x1="415.2" y1="346" x2="415.2" y2="351" stroke="#475569" stroke-width="1"/><text x="415.2" y="366" text-anchor="middle" font-size="12" fill="#475569">16</text><line x1="473.4" y1="346" x2="473.4" y2="351" stroke="#475569" stroke-width="1"/><text x="473.4" y="366" text-anchor="middle" font-size="12" fill="#475569">24</text><line x1="531.6" y1="346" x2="531.6" y2="351" stroke="#475569" stroke-width="1"/><text x="531.6" y="366" text-anchor="middle" font-size="12" fill="#475569">40</text><line x1="589.8" y1="346" x2="589.8" y2="351" stroke="#475569" stroke-width="1"/><text x="589.8" y="366" text-anchor="middle" font-size="12" fill="#475569">64</text><line x1="648" y1="346" x2="648" y2="351" stroke="#475569" stroke-width="1"/><text x="648" y="366" text-anchor="middle" font-size="12" fill="#475569">120</text><path d="M124.2,72.2 L182.4,174.4 L240.6,193.2 L298.8,220.7 L357.0,240.5 L415.2,255.8 L473.4,271.7 L531.6,288.8 L589.8,301.3 L648.0,313.4" fill="none" stroke="#64748B" stroke-width="2.5" /><circle cx="124.2" cy="72.2" r="3.2" fill="#64748B"/><circle cx="182.4" cy="174.4" r="3.2" fill="#64748B"/><circle cx="240.6" cy="193.2" r="3.2" fill="#64748B"/><circle cx="298.8" cy="220.7" r="3.2" fill="#64748B"/><circle cx="357.0" cy="240.5" r="3.2" fill="#64748B"/><circle cx="415.2" cy="255.8" r="3.2" fill="#64748B"/><circle cx="473.4" cy="271.7" r="3.2" fill="#64748B"/><circle cx="531.6" cy="288.8" r="3.2" fill="#64748B"/><circle cx="589.8" cy="301.3" r="3.2" fill="#64748B"/><circle cx="648.0" cy="313.4" r="3.2" fill="#64748B"/><path d="M66.0,293.1 L124.2,259.2 L182.4,259.4 L240.6,259.8 L298.8,264.6 L357.0,269.4 L415.2,275.8 L473.4,284.2 L531.6,294.7 L589.8,304.3 L648.0,314.7" fill="none" stroke="#1F4E8C" stroke-width="2.5" /><circle cx="66.0" cy="293.1" r="3.2" fill="#1F4E8C"/><circle cx="124.2" cy="259.2" r="3.2" fill="#1F4E8C"/><circle cx="182.4" cy="259.4" r="3.2" fill="#1F4E8C"/><circle cx="240.6" cy="259.8" r="3.2" fill="#1F4E8C"/><circle cx="298.8" cy="264.6" r="3.2" fill="#1F4E8C"/><circle cx="357.0" cy="269.4" r="3.2" fill="#1F4E8C"/><circle cx="415.2" cy="275.8" r="3.2" fill="#1F4E8C"/><circle cx="473.4" cy="284.2" r="3.2" fill="#1F4E8C"/><circle cx="531.6" cy="294.7" r="3.2" fill="#1F4E8C"/><circle cx="589.8" cy="304.3" r="3.2" fill="#1F4E8C"/><circle cx="648.0" cy="314.7" r="3.2" fill="#1F4E8C"/><line x1="664" y1="56" x2="692" y2="56" stroke="#64748B" stroke-width="3" /><text x="698" y="60" font-size="12.5" fill="#111827">Raw MLE (selected/n)</text><line x1="664" y1="80" x2="692" y2="80" stroke="#1F4E8C" stroke-width="3" /><text x="698" y="84" font-size="12.5" fill="#111827">Shrinkage posterior</text><line x1="66" y1="346" x2="648" y2="346" stroke="#475569" stroke-width="1.5"/><line x1="66" y1="48" x2="66" y2="346" stroke="#475569" stroke-width="1.5"/><text x="66" y="28" font-size="16" font-weight="700" fill="#111827">Cold-start accuracy: shrinkage posterior vs. raw rate</text><text x="357" y="388" text-anchor="middle" font-size="13" fill="#475569">Labeled outcomes in the score band (N)</text><text transform="translate(16,197) rotate(-90)" text-anchor="middle" font-size="13" fill="#475569">Mean absolute error (pp)</text><text x="66" y="412" font-size="11" fill="#64748B">Lower is better. Shrinkage cuts error when labels are scarce and converges to the raw rate as data arrives.</text></svg>